<svg width="40" height="40" viewBox="0 0 40 40" fill="none" xmlns="http://www.w3.org/2000/svg">
<rect width="40" height="40" fill="#F5F5F5"/>
<g id="sobre-dark" clip-path="url(#clip0_0_1)">
<rect width="1440" height="2894" transform="translate(-604 -1218)" fill="#272727"/>
<g id="about_texts">
<g id="links">
<g id="link">
<g id="dashicons:admin-site-alt3">
<path id="Vector" d="M18 0C13.2261 0 8.64773 1.89642 5.27208 5.27208C1.89642 8.64773 0 13.2261 0 18C0 22.7739 1.89642 27.3523 5.27208 30.7279C8.64773 34.1036 13.2261 36 18 36C22.7739 36 27.3523 34.1036 30.7279 30.7279C34.1036 27.3523 36 22.7739 36 18C36 13.2261 34.1036 8.64773 30.7279 5.27208C27.3523 1.89642 22.7739 0 18 0ZM2.22 19.36H7.24C7.32 21.18 7.574 22.988 8 24.76H3.68C2.87603 23.0612 2.38162 21.2325 2.22 19.36ZM19.36 8.56V2.38C21.2874 3.11245 22.8711 4.53925 23.8 6.38C24.2107 7.07467 24.5707 7.79467 24.88 8.54L19.36 8.56ZM25.8 11.26C26.264 13.026 26.54 14.836 26.62 16.66H19.36V11.26H25.8ZM16.64 2.38V8.56H11.12C11.4283 7.81531 11.7893 7.09349 12.2 6.4C13.1249 4.55171 14.7092 3.11732 16.64 2.38ZM16.64 11.26V16.66H9.4C9.48 14.836 9.756 13.026 10.22 11.26H16.64ZM7.24 16.64H2.22C2.38162 14.7675 2.87603 12.9388 3.68 11.24H8C7.57157 13.011 7.31703 14.8196 7.24 16.64ZM9.4 19.36H16.64V24.76H10.22C9.75783 22.9938 9.48298 21.1838 9.4 19.36ZM16.66 27.36V33.54C14.7326 32.8076 13.1489 31.3808 12.22 29.54C11.8093 28.8465 11.4483 28.1247 11.14 27.38L16.66 27.36ZM19.36 33.54V27.46H24.88C24.5717 28.2047 24.2107 28.9265 23.8 29.62C22.8711 31.4608 21.2874 32.8876 19.36 33.62V33.54ZM19.36 24.66V19.26H26.6C26.517 21.0838 26.2422 22.8938 25.78 24.66H19.36ZM28.78 19.26H33.8C33.6384 21.1325 33.144 22.9612 32.34 24.66H28C28.42 22.92 28.674 21.146 28.76 19.36L28.78 19.26ZM28.78 16.56C28.69 14.7725 28.4288 12.9977 28 11.26H32.32C33.126 12.96 33.62 14.788 33.78 16.66L28.78 16.56ZM30.78 8.56H27.2C26.5529 6.74031 25.614 5.03806 24.42 3.52C26.9088 4.63716 29.0706 6.3721 30.7 8.56H30.78ZM11.58 3.52C10.386 5.03806 9.44711 6.74031 8.8 8.56H5.3C6.92944 6.3721 9.09124 4.63716 11.58 3.52ZM5.28 27.52H8.8C9.44711 29.3397 10.386 31.0419 11.58 32.56C9.08435 31.426 6.92189 29.6699 5.3 27.46L5.28 27.52ZM24.4 32.56C25.594 31.0419 26.5329 29.3397 27.18 27.52H30.7C29.0606 29.6786 26.8997 31.3853 24.42 32.48L24.4 32.56Z" fill="white"/>
</g>
</g>
</g>
</g>
</g>
<defs>
<clipPath id="clip0_0_1">
<rect width="1440" height="2894" fill="white" transform="translate(-604 -1218)"/>
</clipPath>
</defs>
</svg>
