<svg width="72" height="72" viewBox="0 0 72 72" fill="none" xmlns="http://www.w3.org/2000/svg">
<path d="M60.75 9H11.25C6.27944 9 2.25 13.0294 2.25 18V54C2.25 58.9706 6.27944 63 11.25 63H60.75C65.7206 63 69.75 58.9706 69.75 54V18C69.75 13.0294 65.7206 9 60.75 9Z" fill="#459A45"/>
<path opacity="0.15" d="M60.75 9H11.25C6.27975 9 2.25 13.0297 2.25 18V54C2.25 58.9703 6.27975 63 11.25 63H60.75C65.7203 63 69.75 58.9703 69.75 54V18C69.75 13.0297 65.7203 9 60.75 9ZM67.5 54C67.5 57.7215 64.4715 60.75 60.75 60.75H11.25C7.5285 60.75 4.5 57.7215 4.5 54V18C4.5 14.2785 7.5285 11.25 11.25 11.25H60.75C64.4715 11.25 67.5 14.2785 67.5 18V54Z" fill="black"/>
<path d="M7.81201 36L36 54L64.188 36L36 18L7.81201 36Z" fill="#FEDF00"/>
<path d="M36 47.25C42.2132 47.25 47.25 42.2132 47.25 36C47.25 29.7868 42.2132 24.75 36 24.75C29.7868 24.75 24.75 29.7868 24.75 36C24.75 42.2132 29.7868 47.25 36 47.25Z" fill="#0A2172"/>
<path d="M31.5 32.625C29.2568 32.625 27.0945 32.9602 25.0357 33.5452C24.8602 34.3327 24.7523 35.1427 24.75 35.982C26.874 35.2732 29.1397 34.8727 31.4977 34.8727C37.1767 34.8727 42.3337 37.1137 46.1655 40.7407C46.5075 40.0072 46.7865 39.2422 46.9665 38.4322C42.8175 34.8232 37.4152 32.6205 31.4977 32.6205L31.5 32.625Z" fill="white"/>
<path opacity="0.2" d="M60.75 11.25H11.25C7.52175 11.25 4.5 14.2718 4.5 18V20.25C4.5 16.5218 7.52175 13.5 11.25 13.5H60.75C64.4782 13.5 67.5 16.5218 67.5 20.25V18C67.5 14.2718 64.4782 11.25 60.75 11.25Z" fill="white"/>
</svg>
