<svg width="72" height="72" viewBox="0 0 72 72" fill="none" xmlns="http://www.w3.org/2000/svg">
<path d="M60.75 9H11.25C6.27944 9 2.25 13.0294 2.25 18V54C2.25 58.9706 6.27944 63 11.25 63H60.75C65.7206 63 69.75 58.9706 69.75 54V18C69.75 13.0294 65.7206 9 60.75 9Z" fill="white"/>
<path d="M3.68555 13.1535H68.3145C66.7148 10.6605 63.9338 9 60.75 9H11.25C8.06855 9 5.28755 10.6605 3.68555 13.1535Z" fill="#A62842"/>
<path d="M4.5675 17.307C4.5495 17.5388 4.5 17.7615 4.5 18V21.4628H69.75V18C69.75 17.7638 69.7005 17.541 69.6825 17.307H4.5675Z" fill="#A62842"/>
<path d="M4.5 25.6163H69.75V29.7698H4.5V25.6163Z" fill="#A62842"/>
<path d="M4.5 33.9232H69.75V38.0767H4.5V33.9232Z" fill="#A62842"/>
<path d="M2.25 42.2302H69.75V46.3837H2.25V42.2302Z" fill="#A62842"/>
<path d="M2.25 54C2.25 54.2362 2.30175 54.459 2.31975 54.693H69.6802C69.6982 54.4612 69.75 54.2385 69.75 54V50.5372H2.25V54Z" fill="#A62842"/>
<path d="M68.3145 58.8464H3.68555C5.2853 61.3394 8.0663 62.9999 11.25 62.9999H60.75C63.9315 62.9999 66.7125 61.3394 68.3145 58.8464Z" fill="#A62842"/>
<path d="M11.25 9H36V38.0768H2.25V18C2.25 13.032 6.282 9 11.25 9Z" fill="#102D5E"/>
<path opacity="0.15" d="M60.75 9H11.25C6.27975 9 2.25 13.0297 2.25 18V54C2.25 58.9703 6.27975 63 11.25 63H60.75C65.7203 63 69.75 58.9703 69.75 54V18C69.75 13.0297 65.7203 9 60.75 9ZM67.5 54C67.5 57.7215 64.4715 60.75 60.75 60.75H11.25C7.5285 60.75 4.5 57.7215 4.5 54V18C4.5 14.2785 7.5285 11.25 11.25 11.25H60.75C64.4715 11.25 67.5 14.2785 67.5 18V54Z" fill="black"/>
<path opacity="0.2" d="M60.75 11.25H11.25C7.52175 11.25 4.5 14.2718 4.5 18V20.25C4.5 16.5218 7.52175 13.5 11.25 13.5H60.75C64.4782 13.5 67.5 16.5218 67.5 20.25V18C67.5 14.2718 64.4782 11.25 60.75 11.25Z" fill="white"/>
<path d="M10.3524 16.7917L11.6844 15.8242H10.0397L9.53118 14.2605L9.02268 15.8242H7.37793L8.70768 16.7917L8.19918 18.3555L9.53118 17.3902L10.8609 18.3555L10.3524 16.7917Z" fill="white"/>
<path d="M17.0551 16.7917L18.3871 15.8242H16.7423L16.2338 14.2605L15.7253 15.8242H14.0806L15.4103 16.7917L14.9018 18.3555L16.2338 17.3902L17.5636 18.3555L17.0551 16.7917Z" fill="white"/>
<path d="M23.76 16.7917L25.0897 15.8242H23.445L22.9365 14.2605L22.428 15.8242H20.7832L22.113 16.7917L21.6067 18.3555L22.9365 17.3902L24.2662 18.3555L23.76 16.7917Z" fill="white"/>
<path d="M13.6483 20.8867L14.9803 19.9215H13.3356L12.8271 18.3555L12.3186 19.9215H10.6738L12.0036 20.8867L11.4951 22.4527L12.8271 21.4852L14.1568 22.4527L13.6483 20.8867Z" fill="white"/>
<path d="M20.3537 20.8867L21.6835 19.9215H20.0387L19.5302 18.3555L19.0217 19.9215H17.377L18.7067 20.8867L18.2005 22.4527L19.5302 21.4852L20.86 22.4527L20.3537 20.8867Z" fill="white"/>
<path d="M27.0563 20.8867L28.3861 19.9215H26.7413L26.2328 18.3555L25.7243 19.9215H24.0796L25.4116 20.8867L24.9031 22.4527L26.2328 21.4852L27.5648 22.4527L27.0563 20.8867Z" fill="white"/>
<path d="M13.6483 29.079L14.9803 28.1115H13.3356L12.8271 26.5477L12.3186 28.1115H10.6738L12.0036 29.079L11.4951 30.6427L12.8271 29.6775L14.1568 30.6427L13.6483 29.079Z" fill="white"/>
<path d="M20.3537 29.079L21.6835 28.1115H20.0387L19.5302 26.5477L19.0217 28.1115H17.377L18.7067 29.079L18.2005 30.6427L19.5302 29.6775L20.86 30.6427L20.3537 29.079Z" fill="white"/>
<path d="M27.0563 29.079L28.3861 28.1115H26.7413L26.2328 26.5477L25.7243 28.1115H24.0796L25.4116 29.079L24.9031 30.6427L26.2328 29.6775L27.5648 30.6427L27.0563 29.079Z" fill="white"/>
<path d="M30.4626 16.7917L31.7923 15.8242H30.1476L29.6391 14.2605L29.1306 15.8242H27.4858L28.8178 16.7917L28.3093 18.3555L29.6391 17.3902L30.9711 18.3555L30.4626 16.7917Z" fill="white"/>
<path d="M10.3524 24.984L11.6844 24.0165H10.0397L9.53118 22.4528L9.02268 24.0165H7.37793L8.70768 24.984L8.19918 26.5478L9.53118 25.5803L10.8609 26.5478L10.3524 24.984Z" fill="white"/>
<path d="M17.0551 24.984L18.3871 24.0165H16.7423L16.2338 22.4528L15.7253 24.0165H14.0806L15.4103 24.984L14.9018 26.5478L16.2338 25.5803L17.5636 26.5478L17.0551 24.984Z" fill="white"/>
<path d="M23.76 24.984L25.0897 24.0165H23.445L22.9365 22.4528L22.428 24.0165H20.7832L22.113 24.984L21.6067 26.5478L22.9365 25.5803L24.2662 26.5478L23.76 24.984Z" fill="white"/>
<path d="M30.4626 24.984L31.7923 24.0165H30.1476L29.6391 22.4528L29.1306 24.0165H27.4858L28.8178 24.984L28.3093 26.5478L29.6391 25.5803L30.9711 26.5478L30.4626 24.984Z" fill="white"/>
<path d="M10.3524 33.174L11.6844 32.2088H10.0397L9.53118 30.6428L9.02268 32.2088H7.37793L8.70768 33.174L8.19918 34.74L9.53118 33.7725L10.8609 34.74L10.3524 33.174Z" fill="white"/>
<path d="M17.0551 33.174L18.3871 32.2088H16.7423L16.2338 30.6428L15.7253 32.2088H14.0806L15.4103 33.174L14.9018 34.74L16.2338 33.7725L17.5636 34.74L17.0551 33.174Z" fill="white"/>
<path d="M23.76 33.174L25.0897 32.2088H23.445L22.9365 30.6428L22.428 32.2088H20.7832L22.113 33.174L21.6067 34.74L22.9365 33.7725L24.2662 34.74L23.76 33.174Z" fill="white"/>
<path d="M30.4626 33.174L31.7923 32.2088H30.1476L29.6391 30.6428L29.1306 32.2088H27.4858L28.8178 33.174L28.3093 34.74L29.6391 33.7725L30.9711 34.74L30.4626 33.174Z" fill="white"/>
</svg>
