<svg width="480" height="170" xmlns="http://www.w3.org/2000/svg"><path d="M358.588 0c38.5 0 72.809 12.549 95.052 32.119L434.783 51.04c-17.105-14.48-44.859-23.898-76.195-23.898-51.977 0-94.112 25.904-94.112 57.857 0 31.954 42.135 57.858 94.112 57.858 44.373 0 81.567-18.881 91.502-44.287h-77.977l-27.05-27.142h132.024c.797 0 1.495.555 1.657 1.338A60.46 60.46 0 01480 85c0 46.944-54.358 85-121.412 85s-121.412-38.056-121.412-85S291.534 0 358.588 0zM39.53 5.666l79.059 79.335-79.059 79.333H0L79.059 85 0 5.666h39.53zm197.647 0l-79.06 79.335 79.06 79.332h-39.53l-79.058-79.332 79.058-79.334h39.53z" fill="#FFF" fill-rule="evenodd"/></svg>